<svg id="Layer_1" data-name="Layer 1" xmlns="http://www.w3.org/2000/svg" viewBox="0 0 173.27 173.27">
    <defs>
        <style>.cls-1{fill:#fff;}.cls-2{fill:#f7df1e;}</style>
    </defs>
    <path class="cls-1"
          d="M195.72,153.72a17.2,17.2,0,0,0-12.4-5.24h-.89A17.18,17.18,0,0,0,170,153.72a15.91,15.91,0,0,0-4.48,11.78l.34,7.77a16.59,16.59,0,0,0,16.86,15.64H183a16.6,16.6,0,0,0,16.87-15.64l.35-7.77A15.91,15.91,0,0,0,195.72,153.72ZM194.08,173A10.85,10.85,0,0,1,183,183.14h-.22A10.84,10.84,0,0,1,171.67,173l-.1-2.36A26,26,0,0,0,186.66,165a13,13,0,0,0,7.53,5.28Zm-3.63-13.65a2.89,2.89,0,0,0-2.31-2.46,2.85,2.85,0,0,0-3.06,1.39c0,.06-3.62,5.73-13.74,6.59a10.2,10.2,0,0,1,2.87-7.17,11.36,11.36,0,0,1,8.22-3.47h.89a11.4,11.4,0,0,1,8.22,3.47,10.14,10.14,0,0,1,2.81,6.48A6.87,6.87,0,0,1,190.45,159.38Z"
          transform="translate(-151.11 -116.72)"/>
    <path class="cls-1"
          d="M308.34,223a17.2,17.2,0,0,0-12.4-5.24h-.89A17.14,17.14,0,0,0,282.67,223a15.87,15.87,0,0,0-4.49,11.77l.34,7.78a16.6,16.6,0,0,0,16.87,15.64h.22a16.59,16.59,0,0,0,16.86-15.64l.35-7.78A15.83,15.83,0,0,0,308.34,223Zm-1.29,11.54-.35,7.77a10.84,10.84,0,0,1-11.09,10.11h-.22a10.85,10.85,0,0,1-11.1-10.11l-.34-7.78a10.19,10.19,0,0,1,2.88-7.53,11.43,11.43,0,0,1,8.22-3.46h.89a11.41,11.41,0,0,1,8.22,3.46A10.23,10.23,0,0,1,307.05,234.57Z"
          transform="translate(-151.11 -116.72)"/>
    <path class="cls-1"
          d="M240.32,158.72a8,8,0,0,0-11.12,0L197,191a2.89,2.89,0,0,1-2,.84H165.54a14.44,14.44,0,0,0-14.43,14.44v40.43a8.68,8.68,0,0,0,11.55,8.17v3.38a2.88,2.88,0,0,0,2.88,2.89H200.2a2.89,2.89,0,0,0,2.89-2.89V211.4a2.87,2.87,0,0,1,.77-2L240.5,170A8,8,0,0,0,240.32,158.72ZM236.38,166l0,0L199.62,205.5a8.65,8.65,0,0,0-2.31,5.9v43.93H168.43V212a2.89,2.89,0,1,0-5.77,0v34.65a2.89,2.89,0,0,1-5.78,0V206.24a8.66,8.66,0,0,1,8.66-8.66h29.38A8.62,8.62,0,0,0,201,195l32.24-32.24a2.29,2.29,0,0,1,3.14,0A2.25,2.25,0,0,1,236.38,166Z"
          transform="translate(-151.11 -116.72)"/>
    <path class="cls-2"
          d="M182.87,200.47a2.89,2.89,0,0,0-2.89,2.88V238a2.89,2.89,0,0,0,5.78,0V203.35A2.88,2.88,0,0,0,182.87,200.47Z"
          transform="translate(-151.11 -116.72)"/>
    <path class="cls-1"
          d="M244.8,223a17.18,17.18,0,0,0-12.39-5.24h-.89A17.18,17.18,0,0,0,219.13,223a15.9,15.9,0,0,0-4.48,11.77l.34,7.78a16.6,16.6,0,0,0,16.86,15.64h.22a16.6,16.6,0,0,0,16.87-15.64l.34-7.78A15.9,15.9,0,0,0,244.8,223Zm-1.28,11.54-.35,7.77a10.85,10.85,0,0,1-11.1,10.11h-.22a10.84,10.84,0,0,1-11.09-10.11l-.35-7.78A10.24,10.24,0,0,1,223.3,227a11.41,11.41,0,0,1,8.22-3.46h.89a11.41,11.41,0,0,1,8.22,3.46A10.23,10.23,0,0,1,243.52,234.57Z"
          transform="translate(-151.11 -116.72)"/>
    <path class="cls-1"
          d="M246.89,261.11H217a14,14,0,0,0-13.95,14v12a2.89,2.89,0,1,0,5.77,0v-12a8.19,8.19,0,0,1,8.18-8.18h29.85a8.19,8.19,0,0,1,8.18,8.18v12a2.89,2.89,0,1,0,5.77,0v-12A14,14,0,0,0,246.89,261.11Z"
          transform="translate(-151.11 -116.72)"/>
    <path class="cls-1"
          d="M310.42,261.11H280.58a14,14,0,0,0-14,14v12a2.89,2.89,0,1,0,5.77,0v-12a8.19,8.19,0,0,1,8.19-8.18h29.84a8.19,8.19,0,0,1,8.18,8.18v12a2.89,2.89,0,0,0,5.78,0v-12A14,14,0,0,0,310.42,261.11Z"
          transform="translate(-151.11 -116.72)"/>
    <path class="cls-1"
          d="M315.86,116.72H214.49a8.6,8.6,0,0,0-8.52,8.66V168.7a2.89,2.89,0,1,0,5.78,0V134.05H318.6v69.3a2.82,2.82,0,0,1-2.74,2.89H217.31a2.89,2.89,0,0,0,0,5.78h98.55a8.61,8.61,0,0,0,8.52-8.67v-78A8.6,8.6,0,0,0,315.86,116.72Zm2.74,11.55H211.75v-2.89a2.83,2.83,0,0,1,2.74-2.89H315.86a2.83,2.83,0,0,1,2.74,2.89Z"
          transform="translate(-151.11 -116.72)"/>
    <path class="cls-1"
          d="M309.94,153.54a2.89,2.89,0,0,0-2.89,2.89v41.15a2.89,2.89,0,1,0,5.77,0V156.43A2.88,2.88,0,0,0,309.94,153.54Z"
          transform="translate(-151.11 -116.72)"/>
    <path class="cls-1"
          d="M298.38,171.59a2.88,2.88,0,0,0-2.88,2.88v23.11a2.89,2.89,0,1,0,5.77,0V174.47A2.88,2.88,0,0,0,298.38,171.59Z"
          transform="translate(-151.11 -116.72)"/>
    <path class="cls-1"
          d="M286.83,165.81A2.88,2.88,0,0,0,284,168.7v28.88a2.89,2.89,0,1,0,5.77,0V168.7A2.89,2.89,0,0,0,286.83,165.81Z"
          transform="translate(-151.11 -116.72)"/>
    <path class="cls-1"
          d="M275.28,183.14a2.89,2.89,0,0,0-2.89,2.89v11.55a2.89,2.89,0,0,0,5.78,0V186A2.89,2.89,0,0,0,275.28,183.14Z"
          transform="translate(-151.11 -116.72)"/>
    <path class="cls-2"
          d="M311.54,140.31a2.89,2.89,0,0,0-4,.8l-9.86,14.78-9.1-6.83a2.9,2.9,0,0,0-4.05.56,2.74,2.74,0,0,0-.29.46L273,172.57l-11,8.26a2.89,2.89,0,1,0,3.46,4.62L277,176.78a2.73,2.73,0,0,0,.87-1l10-20,8.77,6.59a2.89,2.89,0,0,0,4-.58,1.13,1.13,0,0,0,.1-.13l11.55-17.33A2.88,2.88,0,0,0,311.54,140.31Z"
          transform="translate(-151.11 -116.72)"/>
    <path class="cls-2" d="M255.07,139.82H220.41a2.89,2.89,0,0,0,0,5.78h34.66a2.89,2.89,0,0,0,0-5.78Z"
          transform="translate(-151.11 -116.72)"/>
    <path class="cls-1" d="M272.39,139.82h-5.77a2.89,2.89,0,0,0,0,5.78h5.77a2.89,2.89,0,0,0,0-5.78Z"
          transform="translate(-151.11 -116.72)"/>
</svg>