<svg xmlns="http://www.w3.org/2000/svg" viewBox="0 0 209.6 209.6">
    <defs>
        <style>.cls-1{fill:#fff;}.cls-2{fill:#f7df1e;}</style>
    </defs>
    <g id="Layer_2" data-name="Layer 2">
        <path class="cls-1"
              d="M333.84,246.51h10.48a10.48,10.48,0,1,0,0-21H322.53c3.08-22.7-2.22-42.67-11.87-54.16-14.36-17.13-35.22-26.19-60.31-26.19H250l-.66,0c-24.64.24-45.14,9.26-59.3,26.16-15.37,18.29-19.74,56.49-.69,89.09H169.66a10.48,10.48,0,1,0,0,21h7a3.5,3.5,0,1,1,0,7h-21A10.49,10.49,0,0,0,145.2,298.9a10.52,10.52,0,0,0,10.48,10.48h67.19l3,5.05L232.53,331v13.3A10.5,10.5,0,0,0,243,354.8h14a10.5,10.5,0,0,0,10.48-10.48V331l6.63-16.59,10.34-17.22a4.23,4.23,0,0,0,.25-.58l1-1.06a135.18,135.18,0,0,0,17.58-21.12h34.06a10.48,10.48,0,1,0,0-21h-3.49a3.49,3.49,0,1,1,0-7Zm-51.61-72.36c8.4,15.6,8.28,47.46-.32,79.33a144.58,144.58,0,0,1-17.13,38.44h-5a349.63,349.63,0,0,0,5.43-37.27c2.95-32.9,2.94-66.16,0-82.77a75.73,75.73,0,0,0-5.1-18.07A39.92,39.92,0,0,1,282.23,174.15Zm-32.35-21.94h.2c.6.12,4.79,1.66,8.25,20.91,2.88,16,2.87,48.57,0,80.93a343.09,343.09,0,0,1-5.59,37.88h-5.4a343.45,343.45,0,0,1-5.59-37.9c-2.9-32.34-2.92-64.85,0-80.91C244.67,156.44,248.49,152.43,249.88,152.21Zm-10,1.6a76.2,76.2,0,0,0-5.1,18.07c-3,16.61-3,49.87,0,82.75a349.63,349.63,0,0,0,5.43,37.29h-5a145,145,0,0,1-17.15-38.5c-8.58-31.81-8.7-63.67-.29-79.27A39.87,39.87,0,0,1,239.89,153.81ZM155.68,302.4a3.41,3.41,0,0,1-2.48-1.07,3.31,3.31,0,0,1-1-2.42,3.5,3.5,0,0,1,3.49-3.5h21a10.48,10.48,0,0,0,0-21h-7a3.53,3.53,0,0,1-3.5-3.49,3.5,3.5,0,0,1,3.5-3.49h23.83c9.89,16.45,12.58,19.89,22.27,30.07l2.92,4.86Zm64.38-10.48c-9.75-10.28-11.75-13.18-24.35-34.35-17.9-30.06-14.22-65.14-.32-81.69a63.58,63.58,0,0,1,26-18.47,58.5,58.5,0,0,0-9.72,13.43c-9.33,17.33-9.45,50.46-.31,84.35a145.2,145.2,0,0,0,15.79,36.73Zm14.14,24.45h12.31v10.48h-8.12Zm26.28,27.95a3.49,3.49,0,0,1-3.49,3.49H243a3.49,3.49,0,0,1-3.49-3.49V333.84h21v10.48Zm1.13-17.47h-8.12V316.37H265.8ZM269,309.39H231l-6.29-10.48h50.54Zm11.67-18.64-1.13,1.17H272.9a144.66,144.66,0,0,0,15.77-36.68c9.16-33.94,9-67.07-.29-84.4A57.78,57.78,0,0,0,278.22,157a63.67,63.67,0,0,1,27.09,18.89c12.67,15.07,16.82,48.88-.42,81.85A119.48,119.48,0,0,1,280.65,290.75Zm53.19-30.27h3.49a3.55,3.55,0,0,1,3.5,3.49,3.52,3.52,0,0,1-3.5,3.5H307.54c1.14-2,2.32-4.14,3.54-6.49a109.53,109.53,0,0,0,10.25-28.45h23a3.45,3.45,0,0,1,2.49,1.07,3.34,3.34,0,0,1,1,2.43,3.49,3.49,0,0,1-3.49,3.49H333.84a10.48,10.48,0,1,0,0,21Z"
              transform="translate(-145.2 -145.2)"/>
        <path class="cls-2"
              d="M191.35,260.48H169.66a10.48,10.48,0,1,0,0,21h7a3.5,3.5,0,1,1,0,7h-21A10.49,10.49,0,0,0,145.2,298.9a10.52,10.52,0,0,0,10.48,10.48h71.19M250.35,145.2H250m53.27,129.25h34.06a10.48,10.48,0,1,0,0-21h-3.49a3.49,3.49,0,1,1,0-7h10.48a10.48,10.48,0,1,0,0-21H322.53M221.68,302.4h-66a3.41,3.41,0,0,1-2.48-1.07,3.31,3.31,0,0,1-1-2.42,3.5,3.5,0,0,1,3.49-3.5h21a10.48,10.48,0,0,0,0-21h-7a3.53,3.53,0,0,1-3.5-3.49,3.5,3.5,0,0,1,3.5-3.49h25.83m125.84-34.94h23a3.45,3.45,0,0,1,2.49,1.07,3.34,3.34,0,0,1,1,2.43,3.49,3.49,0,0,1-3.49,3.49H333.84a10.48,10.48,0,1,0,0,21h3.49a3.55,3.55,0,0,1,3.5,3.49,3.52,3.52,0,0,1-3.5,3.5H307.54"
              transform="translate(-145.2 -145.2)"/>
        <polygon class="cls-1" points="84.8 164.8 78.31 165.21 70.8 152.8 74.8 146.8 84.8 164.8"/>
        <path class="cls-1" d="M188,258s2,4,9,15,21,25,21,25l3-4-30-38Z" transform="translate(-145.2 -145.2)"/>
        <path class="cls-1" d="M323,220s0,31-28,65l2-11s19-27,21-56Z" transform="translate(-145.2 -145.2)"/>
    </g>
</svg>