<svg id="Layer_1" data-name="Layer 1" xmlns="http://www.w3.org/2000/svg" viewBox="0 0 28.93 43.39">
    <defs>
        <style>.cls-1{fill:#ffd000;}</style>
    </defs>
    <path class="cls-1"
          d="M1.54,15.77V30.23a14.46,14.46,0,0,0,28.92,0V15.77a14.46,14.46,0,0,0-28.92,0ZM16,4.52A11.28,11.28,0,0,1,27.25,15.77V30.23a11.25,11.25,0,0,1-22.5,0V15.77A11.28,11.28,0,0,1,16,4.52Z"
          transform="translate(-1.54 -1.31)"/>
    <path class="cls-1"
          d="M16,18.18a1.62,1.62,0,0,0,1.61-1.61V11.75a1.61,1.61,0,0,0-3.22,0v4.82A1.62,1.62,0,0,0,16,18.18Z"
          transform="translate(-1.54 -1.31)"/>
</svg>