<svg id="Layer_1" data-name="Layer 1" xmlns="http://www.w3.org/2000/svg" viewBox="0 0 300.55 276">
    <defs>
        <style>.cls-1{fill:#dd0031;}.cls-2{fill:#fff;}</style>
    </defs>
    <path class="cls-1"
          d="M296,112H195.76a43.69,43.69,0,0,0-37.83,21.84L107.8,220.68a58.62,58.62,0,0,0,0,58.64l45.81,79.36A58.66,58.66,0,0,0,204.4,388H296a58.65,58.65,0,0,0,50.79-29.32l45.82-79.36a58.66,58.66,0,0,0,0-58.64l-45.82-79.36A58.65,58.65,0,0,0,296,112Z"
          transform="translate(-99.94 -112)"/>
    <path class="cls-2"
          d="M273.5,254.79H227.21l23.14-55.66ZM250.35,141.41,171.14,319h29.53l15.93-39.75h67.24L299.76,319H329.3Z"
          transform="translate(-99.94 -112)"/>
</svg>