<svg id="Layer_1" data-name="Layer 1" xmlns="http://www.w3.org/2000/svg" viewBox="0 0 300.55 276">
    <defs>
        <style>.cls-1{fill:#2196f3;}.cls-2{fill:#fafafa;}</style>
    </defs>
    <path class="cls-1"
          d="M301.81,113H201.54a43.66,43.66,0,0,0-37.82,21.84l-50.14,86.84a58.66,58.66,0,0,0,0,58.64l45.82,79.36A58.64,58.64,0,0,0,210.19,389h91.62a58.64,58.64,0,0,0,50.79-29.32l45.82-79.36a58.66,58.66,0,0,0,0-58.64L352.6,142.32A58.64,58.64,0,0,0,301.81,113Z"
          transform="translate(-105.72 -113)"/>
    <polygon class="cls-2"
             points="228.69 80.45 225.76 113.36 216.92 212.01 150.94 230.26 150.88 230.27 84.94 212.01 80.34 160.42 112.64 160.42 115.05 187.18 150.9 196.86 150.92 196.84 186.83 187.16 191.72 142.57 78.79 142.88 75.59 112.4 194.43 111 196.83 78.36 72.41 78.71 70.31 48.34 150.94 48.34 231.56 48.34 228.69 80.45"/>
</svg>