<svg id="Layer_1" data-name="Layer 1" xmlns="http://www.w3.org/2000/svg" viewBox="0 0 300.55 276">
    <defs>
        <style>.cls-1{fill:#f16529;}.cls-2{fill:#fff;}</style>
    </defs>
    <path class="cls-1"
          d="M295.81,112H195.54a43.66,43.66,0,0,0-37.82,21.84l-50.14,86.84a58.66,58.66,0,0,0,0,58.64l45.82,79.36A58.64,58.64,0,0,0,204.19,388h91.62a58.64,58.64,0,0,0,50.79-29.32l45.82-79.36a58.66,58.66,0,0,0,0-58.64L346.6,141.32A58.64,58.64,0,0,0,295.81,112Z"
          transform="translate(-99.72 -112)"/>
    <path class="cls-2"
          d="M290.26,257.2l-3.68,41.26L251.12,308l-.07,0-35.43-9.55-2.27-25.4H181.4l4.46,50,65.19,18.09h.07l.07,0,65.12-16.07,8.74-97.68-116-2-2.9-32.59H327.94L330.79,161H171.39L180,257.2Z"
          transform="translate(-99.72 -112)"/>
</svg>