<svg id="Layer_1" data-name="Layer 1" xmlns="http://www.w3.org/2000/svg" viewBox="0 0 300.55 276">
    <defs>
        <style>.cls-1{fill:#3558a8;}.cls-2{fill:#4b77bc;}.cls-3{fill:#5da3c2;}.cls-4{fill:#fff;}</style>
    </defs>
    <path class="cls-1"
          d="M295.76,112.07H195.49a43.68,43.68,0,0,0-37.83,21.84l-50.13,86.83a58.63,58.63,0,0,0,0,58.65l45.81,79.35a58.65,58.65,0,0,0,50.79,29.33h91.63a58.65,58.65,0,0,0,50.79-29.33l45.81-79.35a58.63,58.63,0,0,0,0-58.65l-45.81-79.35A58.66,58.66,0,0,0,295.76,112.07Z"
          transform="translate(-99.67 -112.07)"/>
    <g id="Layer_6" data-name="Layer 6">
        <path class="cls-2"
              d="M147.8,190.3c-20.72,29.78-18.14,68.52-2.31,100.16.38.76.77,1.51,1.16,2.25.25.48.48,1,.74,1.43.14.28.31.55.46.82.27.5.55,1,.83,1.47.49.87,1,1.73,1.51,2.59.28.48.56,1,.86,1.42.57.92,1.15,1.84,1.75,2.75.25.38.49.77.75,1.15.82,1.23,1.67,2.46,2.54,3.67l.07.09c.14.19.29.38.43.58.75,1,1.53,2.06,2.31,3.08l.88,1.1c.7.89,1.41,1.76,2.13,2.63l.82,1c1,1.14,2,2.28,3,3.4l.06.06.12.13q1.49,1.62,3,3.19c.31.33.64.66,1,1,.79.8,1.6,1.59,2.41,2.37.34.32.66.64,1,.94,1.09,1,2.19,2,3.32,3l0,0,.58.49c1,.86,2,1.71,3,2.55l1.24,1c.83.66,1.67,1.32,2.51,2l1.34,1c.94.68,1.87,1.36,2.82,2l1,.73a2.83,2.83,0,0,0,.28.2c.9.62,1.81,1.22,2.73,1.81l1.19.79c1.4.89,2.83,1.77,4.28,2.62l1.18.67q1.59.92,3.21,1.8l1.78.91c.76.41,1.52.81,2.3,1.2l.53.25.94.46c1.21.58,2.42,1.14,3.65,1.69l.77.34c1.4.61,2.82,1.21,4.25,1.77l1,.41c1.33.51,2.67,1,4,1.48l.51.18c1.48.51,3,1,4.47,1.46l1.08.33A43.37,43.37,0,0,0,232,360c100.2,18.27,129.3-60.22,129.3-60.22-24.44,31.85-67.83,40.25-108.94,30.9-1.56-.35-3.07-.84-4.59-1.29l-1.15-.35c-1.48-.45-3-.93-4.41-1.43l-.61-.22c-1.31-.46-2.6-.95-3.9-1.45l-1.09-.42c-1.41-.56-2.82-1.15-4.2-1.75-.29-.12-.56-.25-.84-.38-1.2-.54-2.38-1.08-3.55-1.64l-1-.5c-.92-.45-1.83-.92-2.74-1.39-.61-.32-1.23-.63-1.83-1-1.11-.6-2.21-1.22-3.29-1.85l-1.11-.61c-1.45-.86-2.87-1.74-4.29-2.63-.39-.25-.77-.51-1.15-.77-1-.66-2.05-1.33-3.05-2-.33-.22-.65-.46-1-.69-1-.68-1.93-1.37-2.88-2.08l-1.28-1c-.87-.67-1.74-1.34-2.6-2l-1.16-.93c-1.09-.9-2.17-1.8-3.24-2.72l-.35-.3c-1.15-1-2.29-2.05-3.4-3.1-.33-.31-.65-.61-1-.92-.83-.79-1.65-1.58-2.45-2.4l-1-.95q-1.53-1.57-3-3.18l-.15-.16c-1-1.13-2.05-2.29-3-3.46l-.8-.95c-.74-.89-1.47-1.8-2.19-2.71-.27-.32-.54-.66-.8-1-.86-1.12-1.71-2.23-2.53-3.37-22.83-31.13-31-74.07-12.79-109.33"
              transform="translate(-99.67 -112.07)"/>
        <path class="cls-2"
              d="M212.12,165.21c-15,21.56-14.17,50.42-2.49,73.23a96,96,0,0,0,6.63,11.06c2.25,3.22,4.73,7.05,7.71,9.63,1.08,1.19,2.21,2.35,3.37,3.49.29.3.59.58.88.88,1.12,1.08,2.26,2.15,3.44,3.19l.14.12,0,0c1.3,1.14,2.65,2.24,4,3.32l.91.71c1.37,1.05,2.77,2.08,4.2,3.07a.94.94,0,0,1,.12.09c.63.43,1.27.84,1.91,1.26.31.2.6.41.91.6,1,.65,2.06,1.29,3.11,1.91.15.09.3.16.44.25.91.52,1.83,1,2.75,1.54.32.18.65.34,1,.51.64.33,1.27.67,1.92,1l.29.13c1.32.65,2.66,1.28,4,1.87l.89.37c1.09.46,2.19.91,3.29,1.33l1.41.52c1,.37,2,.71,3,1.05l1.36.44a34.65,34.65,0,0,0,4.37,1.26C349.09,300.88,367,241.31,367,241.31c-16.1,23.18-47.28,34.25-80.55,25.61-1.48-.38-2.93-.81-4.38-1.26l-1.32-.43c-1-.33-2.05-.69-3.06-1.05l-1.39-.52c-1.11-.43-2.21-.87-3.29-1.33l-.89-.37c-1.37-.6-2.71-1.23-4-1.88-.68-.33-1.35-.69-2-1l-1.17-.6c-.86-.47-1.72-.95-2.56-1.45l-.61-.34c-1.05-.62-2.08-1.25-3.11-1.9-.31-.2-.61-.42-.93-.62-.67-.44-1.35-.88-2-1.33-1.43-1-2.81-2-4.18-3.06l-.94-.74c-14.57-11.5-26.11-27.21-31.6-45-5.75-18.48-4.51-39.22,5.46-56"
              transform="translate(-99.67 -112.07)"/>
        <path class="cls-2"
              d="M266.21,146.47c-8.84,13-9.7,29.14-3.57,43.5,6.46,15.23,19.7,27.19,35.16,32.85.64.24,1.28.46,1.92.67.28.09.56.19.85.27a23.59,23.59,0,0,0,2.76.8c42.71,8.25,54.3-21.92,57.38-26.37-10.15,14.62-27.2,18.13-48.13,13.05-1.66-.41-3.47-1-5.07-1.57a62.92,62.92,0,0,1-6-2.5A62,62,0,0,1,291,200.74c-18.73-14.21-30.36-41.31-18.14-63.39"
              transform="translate(-99.67 -112.07)"/>
    </g>
    <path class="cls-3" d="M292,241.48l.2.81a.33.33,0,0,1-.33.42" transform="translate(-99.67 -112.07)"/>
    <polyline class="cls-3" points="126.31 133.31 125.38 136.62 126.31 133.32 126.31 133.31"/>
    <path class="cls-4"
          d="M336.28,236l-1-4.25c-.79-3.08-3-4.54-8.1-4.54H305.91a1,1,0,0,0-1.08.7l-8.06,38.25a2.71,2.71,0,0,0-.09,1.07c.06.25,1,.2,1.49.2h7.37a8.36,8.36,0,0,0,1.65-.06c.27-.12.39-.85.49-1.33l2.6-13.41,3.18-14.88a1.15,1.15,0,0,1,1.07-.87h21.06a.68.68,0,0,0,.69-.87"
          transform="translate(-99.67 -112.07)"/>
    <path class="cls-4"
          d="M366.24,220.47H356.9a2.13,2.13,0,0,0-1.39.93l-16.4,24.12c-.28.41-.6.39-.7-.08l-1.22-5.29a1.15,1.15,0,0,0-1.08-.87H325.57a.66.66,0,0,0-.65.88l4.72,16.56a3.84,3.84,0,0,1,0,1.72l-2.2,8.39c-.12.47.18.62.68.62h10.4c.49,0,1-.15,1.12-.62l2.2-8.51a5.08,5.08,0,0,1,.75-1.51l26.76-35.49c.3-.38.26-.85-.23-.85h-2.91"
          transform="translate(-99.67 -112.07)"/>
    <path class="cls-4"
          d="M256.53,227.22H247c-.49,0-1,.17-1.08.65l-3.14,14.71-3.14,14.08c-.1.48-.58.45-1.07.45h-6.25c-6.18,0-5.47-3.91-4.2-9.76,0-.06,4-19.48,4-19.48.08-.47-.24-.65-.72-.65h-9.06c-.49,0-1,.18-1.07.65l-3.65,19.46c-1.82,10.52-1.87,19.78,10.33,20.09h19.27c.49,0,1-.17,1.08-.64l4.13-19.51,4.13-19.6s.14-.45,0-.45"
          transform="translate(-99.67 -112.07)"/>
    <path class="cls-4"
          d="M161.8,227.19H151.61c-.49,0-1,.12-1.09.6l-1.84,8a.67.67,0,0,0,.7.85h9.76a1.24,1.24,0,0,0,1.09-.92l1.77-8s.14-.47-.2-.47"
          transform="translate(-99.67 -112.07)"/>
    <path class="cls-4"
          d="M148.72,239.28a1.16,1.16,0,0,0-1.09.87l-1.37,6.07-3.07,14s-1.63,7.46-1.79,7.92c0,0-1.37,5.38-4.66,5.17a29.6,29.6,0,0,1-3.27-.45h0c-.92-.28-1,.67-1.1,1.15l-2,8.74a.71.71,0,0,0,.68.91,66.68,66.68,0,0,0,7.49.62H139c7.65,0,11.7-4.5,14.29-16.73l3-14.15,2.84-13.17a.71.71,0,0,0-.67-.92"
          transform="translate(-99.67 -112.07)"/>
    <path class="cls-4"
          d="M285.11,244c0,.53-1.68.43-1.68.43l-13.37-.09c-.46,0-.59-.65-.62-1.11a5.51,5.51,0,0,1,.07-.69c1-3.59,4.12-5.64,9-5.64,5.51,0,6.68,2.73,6.68,5.76m-4.6-15.49c-17.15,0-21.24,10.6-23.52,21.11-2.28,10.71-2.08,19.18,15.66,19.18H289a1.19,1.19,0,0,0,1-.92l1.75-6.8c.1-.48-.23-.62-.71-.62h-16c-5.78,0-7.85-1.78-7.65-5.78,0-.46.52-1.62,1-1.62H293c1.08,0,1.11-.64,1.11-.64,2.51-11.29,2.67-23.91-13.56-23.91"
          transform="translate(-99.67 -112.07)"/>
    <path class="cls-4"
          d="M197.41,249.21l-2,6.75a1.26,1.26,0,0,1-1.18.79h-10.2c-7.74,0-9.62-6-7.74-14.9,1.89-9.12,5.63-14.77,13.24-15.34,10.41-.78,12.54,6.57,10,15l-2.15,7.69m9.06,7.15s4.8-11.66,5.89-18.41c1.49-9-3-22.11-20.48-22.11S167,228.33,164.12,241.92s.88,25.6,18.14,25.5l26.34,0a1.22,1.22,0,0,0,1.11-.86l2.23-8.45a.67.67,0,0,0-.68-.87l-2.12,0H207c-.42,0-.66-.27-.6-.63a.84.84,0,0,1,.05-.2"
          transform="translate(-99.67 -112.07)"/>
</svg>