<svg id="Layer_1" data-name="Layer 1" xmlns="http://www.w3.org/2000/svg" viewBox="0 0 300.55 276">
    <defs>
        <style>.cls-1{fill:#f7df1e;}.cls-2{fill:#191919;}</style>
    </defs>
    <path class="cls-1"
          d="M295.87,112H195.6a43.68,43.68,0,0,0-37.83,21.84l-50.13,86.84a58.62,58.62,0,0,0,0,58.64l45.81,79.36A58.66,58.66,0,0,0,204.24,388h91.63a58.66,58.66,0,0,0,50.79-29.32l45.81-79.36a58.62,58.62,0,0,0,0-58.64l-45.81-79.36A58.66,58.66,0,0,0,295.87,112Z"
          transform="translate(-99.78 -112)"/>
    <path class="cls-2"
          d="M199.23,303.48l18.3-11.07C221.06,298.67,224.27,304,232,304c7.39,0,12-2.88,12-14.12V213.43h22.48v76.73c0,23.27-13.65,33.87-33.55,33.87-18,0-28.41-9.31-33.71-20.55"
          transform="translate(-99.78 -112)"/>
    <path class="cls-2"
          d="M278.69,301.07,297,290.48c4.82,7.87,11.08,13.64,22.15,13.64,9.31,0,15.25-4.65,15.25-11.07,0-7.71-6.1-10.44-16.37-14.93l-5.62-2.41c-16.21-6.9-27-15.57-27-33.87,0-16.85,12.85-29.69,32.91-29.69,14.29,0,24.56,5,31.94,18l-17.49,11.23c-3.86-6.9-8-9.63-14.45-9.63-6.58,0-10.75,4.17-10.75,9.63,0,6.74,4.17,9.47,13.8,13.65l5.62,2.4c19.1,8.19,29.85,16.54,29.85,35.32C356.86,313,341,324,319.62,324c-20.86,0-34.35-9.95-40.93-23"
          transform="translate(-99.78 -112)"/>
</svg>