<svg id="Layer_1" data-name="Layer 1" xmlns="http://www.w3.org/2000/svg" viewBox="0 0 300.55 276">
    <defs>
        <style>.cls-1{fill:#dcdcdc;}.cls-2{fill:#dcdcdc;}</style>
    </defs>
    <path class="cls-1"
          d="M295.87,112.07H195.6a43.68,43.68,0,0,0-37.83,21.84l-50.13,86.83a58.63,58.63,0,0,0,0,58.65l45.81,79.35a58.65,58.65,0,0,0,50.79,29.33h91.63a58.65,58.65,0,0,0,50.79-29.33l45.81-79.35a58.63,58.63,0,0,0,0-58.65l-45.81-79.35A58.66,58.66,0,0,0,295.87,112.07Z"
          transform="translate(-99.78 -112.07)"/>
    <path id="path21" class="cls-2"
          d="M278.71,248.27C289,251.87,294.38,258,294.38,267A16.68,16.68,0,0,1,288,280.9c-4.37,3.34-10.28,5.4-18.25,5.4a44.78,44.78,0,0,1-20.81-5.4,2.69,2.69,0,0,1-1.29-2.31,23.26,23.26,0,0,1,1.55-5.14c.77-1.54,1.28-2.83,2.05-4.11a2.38,2.38,0,0,1,3.09-.77c5.65,2.57,10.27,4.11,14.64,4.11a10.18,10.18,0,0,0,5.14-1,3.25,3.25,0,0,0,1.8-2.82c0-2.32-1.8-4.12-5.4-5.14l-6.42-2.32c-9.76-3.59-14.65-9.25-14.65-17.47q0-8.86,6.17-13.88c4.11-3.34,9.51-6.42,16.45-6.42a47.31,47.31,0,0,1,11.3,1.54c3.6.77,6.43,2.57,9,4.11a2.71,2.71,0,0,1,1.28,2.32,16.26,16.26,0,0,1-1.28,5.65,14,14,0,0,1-2.57,4.37,2,2,0,0,1-2.57.51c-5.91-2.57-10.79-3.85-14.91-3.85a5,5,0,0,0-3.59,1,3.61,3.61,0,0,0-1.29,2.57c0,1.8,1.54,3.34,4.37,4.37l6.94,2.06Z"
          transform="translate(-99.78 -112.07)"/>
    <path id="path27" class="cls-2"
          d="M326.5,257.52c-3.34,2.83-5.14,6.94-5.14,12.59v20.3c0,6.68-2.05,11.82-6.68,15.42s-10,5.14-16.19,5.4H294.9v-8.48a2,2,0,0,1,1.54-2.06,9.88,9.88,0,0,0,4.37-2.83,13.62,13.62,0,0,0,4.11-10.28V271.14c0-5.65.51-10,2.57-13.11,1.54-2.31,4.11-4.37,7.71-6.42a2.4,2.4,0,0,0,0-4.11,21.28,21.28,0,0,1-9-9.51c-1.28-2.83-1.28-6.68-1.28-11.56V211.52c0-4.88-1.54-8.48-3.6-10.28a8.86,8.86,0,0,0-4.62-2.57,2.24,2.24,0,0,1-1.55-2.31V191a2.31,2.31,0,0,1,2.32-2.32h6.93c3.86,0,7.2,2.06,10,4.37a19.88,19.88,0,0,1,6.68,10,21.41,21.41,0,0,1,.77,6.94V227.2c0,6.16,1.8,10.79,4.88,13.62a19,19,0,0,0,6.94,4.11,2.14,2.14,0,0,1,1.54,2v4.37a2.46,2.46,0,0,1-1.54,2.31,15.64,15.64,0,0,0-7.2,3.86Z"
          transform="translate(-99.78 -112.07)"/>
    <path id="path29" class="cls-2"
          d="M200.33,188.65H197c-3.85,0-7.19,2.06-10,4.37-3.08,2.57-5.91,5.65-6.68,10A32.22,32.22,0,0,0,180,210V227.2a18.53,18.53,0,0,1-5.39,13.62c-1.55,1.54-4.63,2.82-8.23,4.11a2.47,2.47,0,0,0-1.54,2.31v4.37a2.47,2.47,0,0,0,1.54,2.31,23.82,23.82,0,0,1,7.71,3.86,15.81,15.81,0,0,1,5.66,12.59v20.3c0,6.68,1.54,11.82,6.16,15.42s10,5.14,16.19,5.39h1.8a2.3,2.3,0,0,0,2.31-2.31V303A1.94,1.94,0,0,0,204.7,301a12.2,12.2,0,0,1-4.88-2.83c-2.31-2.06-3.6-5.65-3.6-10.28V271.4q0-8.49-3.08-13.11c-1.54-2.31-4.11-4.37-7.71-6.42a2.41,2.41,0,0,1,0-4.12,21.23,21.23,0,0,0,9-9.5c1.29-2.83,1.8-6.68,1.8-11.57v-14.9c0-4.88,1-8.48,3.09-10.28,1-1,2.82-1.8,5.39-2.57H207a2.31,2.31,0,0,0,2.32-2.31v-5.4a2.31,2.31,0,0,0-2.32-2.31l-6.68-.26Z"
          transform="translate(-99.78 -112.07)"/>
    <path id="path31" class="cls-2"
          d="M242,270.62h-3.08c-3.34,0-4.63-1.79-4.63-5.39V198.67c0-4.11-1.28-6.93-2.57-8.48-1.54-1.54-4.11-1.54-7.71-1.54h-5.65A2.31,2.31,0,0,0,216,191v77.6c0,5.65,1.28,9.51,3.6,12.33,2.31,2.57,5.91,3.86,11.3,3.86A82.54,82.54,0,0,0,241.7,284a2.8,2.8,0,0,0,2.06-2.06v-3.08a64.76,64.76,0,0,0-1.8-8.23Z"
          transform="translate(-99.78 -112.07)"/>
</svg>