<svg id="Layer_1" data-name="Layer 1" xmlns="http://www.w3.org/2000/svg" viewBox="0 0 300.55 276">
    <defs>
        <style>.cls-1{fill:#cf6296;}.cls-2{fill:#fff;}</style>
    </defs>
    <path class="cls-1"
          d="M296,112H195.76a43.69,43.69,0,0,0-37.83,21.84L107.8,220.68a58.62,58.62,0,0,0,0,58.64l45.81,79.36A58.66,58.66,0,0,0,204.4,388H296a58.65,58.65,0,0,0,50.79-29.32l45.82-79.36a58.66,58.66,0,0,0,0-58.64l-45.82-79.36A58.65,58.65,0,0,0,296,112Z"
          transform="translate(-99.94 -112)"/>
    <path class="cls-2"
          d="M329.66,260.92a40.66,40.66,0,0,0-17.93,4.18c-1.84-3.67-3.7-6.89-4-9.29-.37-2.8-.79-4.47-.35-7.81s2.37-8.06,2.34-8.41-.43-2.05-4.42-2.08-7.4.77-7.81,1.82a38.52,38.52,0,0,0-1.64,5.9c-.7,3.61-8,16.52-12.1,23.27-1.35-2.64-2.49-5-2.73-6.8-.37-2.8-.79-4.47-.35-7.8s2.37-8.06,2.34-8.41-.43-2.06-4.42-2.08-7.4.76-7.81,1.82-.83,3.51-1.64,5.89-10.48,23.91-13,29.49c-1.29,2.84-2.41,5.13-3.21,6.69h0l-.13.28c-.68,1.32-1.08,2.06-1.08,2.06v0c-.54,1-1.12,1.88-1.4,1.88s-.6-2.6.08-6.16c1.44-7.47,4.9-19.11,4.86-19.51,0-.21.64-2.24-2.25-3.3a3.62,3.62,0,0,0-4.08.69c-.25,0-.43.61-.43.61s3.13-13.09-6-13.09c-5.7,0-13.6,6.24-17.49,11.89-2.46,1.34-7.72,4.21-13.29,7.27l-6.4,3.52-.43-.46c-11.06-11.8-31.51-20.15-30.64-36,.32-5.77,2.32-21,39.29-39.37,30.28-15.09,54.52-10.94,58.71-1.74,6,13.15-13,37.58-44.4,41.11-12,1.34-18.29-3.3-19.86-5s-1.9-1.9-2.52-1.56c-1,.55-.37,2.16,0,3.12.94,2.44,4.79,6.78,11.36,8.93,5.78,1.9,19.85,2.94,36.86-3.64,19.05-7.37,33.93-27.87,29.56-45-4.44-17.43-33.34-23.16-60.69-13.44-16.28,5.78-33.9,14.86-46.57,26.71-15.07,14.09-17.47,26.35-16.48,31.48,3.52,18.21,28.61,30.06,38.66,38.85l-1.38.77c-5,2.49-24.17,12.5-29,23.08-5.42,12,.87,20.61,5,21.77,12.91,3.59,26.16-2.87,33.27-13.49s6.25-24.43,3-30.74l-.12-.23,3.94-2.33c2.56-1.51,5.08-2.91,7.27-4.1a48.65,48.65,0,0,0-2.59,13.16c-.54,6.81,2.25,15.62,5.9,19.08a6.44,6.44,0,0,0,4.77,1.56c4.25,0,6.19-3.53,8.33-7.72,2.61-5.13,4.94-11.1,4.94-11.1s-2.92,16.13,5,16.13c2.89,0,5.81-3.75,7.1-5.67v0l.22-.38c.3-.46.47-.75.47-.75l0-.08c1.16-2,3.74-6.63,7.62-14.23,5-9.82,9.79-22.11,9.79-22.11a66.5,66.5,0,0,0,1.91,8c.86,2.93,2.69,6.16,4.13,9.26-1.16,1.61-1.87,2.54-1.87,2.54l0,.05c-.93,1.23-2,2.56-3.06,3.85-3.95,4.7-8.65,10.07-9.28,11.62-.74,1.83-.56,3.17.87,4.25,1.05.79,2.91.91,4.86.78a22.36,22.36,0,0,0,7.27-1.65,24.65,24.65,0,0,0,6.26-3.29,13.93,13.93,0,0,0,6-12.32,24.86,24.86,0,0,0-2.27-8.7q.53-.75,1.05-1.53a164,164,0,0,0,10.84-18.73,66.33,66.33,0,0,0,1.91,8,56.12,56.12,0,0,0,3.51,7.95c-5.74,4.67-9.3,10.09-10.53,13.64-2.29,6.58-.5,9.56,2.86,10.23,1.52.31,3.67-.39,5.29-1.07a24.84,24.84,0,0,0,6.68-3.43c3.87-2.85,7.59-6.84,7.37-12.23a23,23,0,0,0-1.67-7.24c4.86-2,11.16-3.15,19.19-2.22,17.21,2,20.59,12.76,19.94,17.26s-4.25,7-5.46,7.72-1.58,1-1.47,1.56c.14.81.7.78,1.73.6,1.42-.23,9-3.65,9.37-12C357.65,272.41,347.55,260.83,329.66,260.92ZM197,305.66c-5.7,6.22-13.67,8.57-17.08,6.59-3.69-2.14-2.23-11.3,4.77-17.9a90.48,90.48,0,0,1,13.42-10l3.53-2.12L202,282h0l.89-.53A24.76,24.76,0,0,1,197,305.66Zm41.54-28.24c-2,4.84-6.14,17.23-8.67,16.56-2.17-.57-3.5-10-.44-19.25a43,43,0,0,1,6.77-12.4c3.11-3.48,6.54-4.62,7.37-3.21C244.6,260.92,239.76,274.38,238.51,277.42Zm34.32,16.37c-.84.44-1.61.72-2,.51s.34-.74.34-.74,4.3-4.62,6-6.72c1-1.22,2.12-2.68,3.36-4.3,0,.16,0,.32,0,.48C280.56,288.56,275.21,292.29,272.83,293.79Zm26.44-6c-.63-.45-.53-1.9,1.54-6.39a24,24,0,0,1,5.88-7.59,10.9,10.9,0,0,1,.59,3.34C307.24,284.09,302.27,286.69,299.27,287.77Z"
          transform="translate(-99.94 -112)"/>
</svg>