<svg id="Layer_1" data-name="Layer 1" xmlns="http://www.w3.org/2000/svg" viewBox="0 0 300.55 276">
    <defs>
        <style>.cls-1{fill:#21759b;}.cls-2{fill:#fff;}</style>
    </defs>
    <path class="cls-1"
          d="M295.87,112H195.6a43.68,43.68,0,0,0-37.83,21.84l-50.13,86.84a58.62,58.62,0,0,0,0,58.64l45.81,79.36A58.66,58.66,0,0,0,204.24,388h91.63a58.66,58.66,0,0,0,50.79-29.32l45.81-79.36a58.62,58.62,0,0,0,0-58.64l-45.81-79.36A58.66,58.66,0,0,0,295.87,112Z"
          transform="translate(-99.78 -112)"/>
    <path id="WordPress" class="cls-2"
          d="M142.21,250.53A107.79,107.79,0,1,0,250,142.75,107.78,107.78,0,0,0,142.21,250.53Zm8.31,0A99.16,99.16,0,0,1,159.14,210l47.45,130A99.48,99.48,0,0,1,150.52,250.53ZM250,350a99.49,99.49,0,0,1-28.11-4l29.86-86.72L282.32,343a9.63,9.63,0,0,0,.7,1.36A99,99,0,0,1,250,350Zm80.39-101.34C336.06,234.47,338,223.13,338,213a72.86,72.86,0,0,0-.69-10.24A99.48,99.48,0,0,1,300,336.5Zm-21.45-30.59c3.77,6.62,8.21,15.14,8.21,27.44q0,12.78-7.57,32.16l-9.93,33.14L263.7,203.89c6-.32,11.38-.94,11.38-.94,5.36-.64,4.72-8.5-.63-8.21,0,0-16.11,1.27-26.51,1.27-9.78,0-26.2-1.27-26.2-1.27-5.36-.29-6,7.89-.63,8.21,0,0,5.08.62,10.44.94L247,246.36l-21.77,65.27L189,203.89c6-.32,11.4-.94,11.4-.94,5.36-.64,4.7-8.5-.64-8.21,0,0-16.11,1.27-26.52,1.27-1.86,0-4.06,0-6.39-.11a99.41,99.41,0,0,1,150.27-18.72c-.42,0-.85-.08-1.27-.08-9.8,0-16.71,8.5-16.71,17.64C299.18,203,303.9,209.88,308.94,218.07Z"
          transform="translate(-99.78 -112)"/>
</svg>