<?xml version="1.0" encoding="utf-8"?>
<!-- Generator: Adobe Illustrator 21.0.0, SVG Export Plug-In . SVG Version: 6.00 Build 0)  -->
<svg version="1.1" id="Layer_1" xmlns="http://www.w3.org/2000/svg" xmlns:xlink="http://www.w3.org/1999/xlink" x="0px" y="0px"
	 viewBox="0 0 27.7 26.5" style="enable-background:new 0 0 27.7 26.5;" xml:space="preserve">
<style type="text/css">
	.st0{fill:#FFFFFF;}
</style>
<rect x="0.3" y="8.6" class="st0" width="5.9" height="17.9"/>
<path class="st0" d="M3.4,0C1.7-0.2,0.2,1.1,0,2.8C-0.2,4.5,1.1,6,2.8,6.2c0.2,0,0.3,0,0.5,0l0,0C5,6.3,6.5,5,6.6,3.3
	C6.8,1.6,5.5,0.1,3.8,0C3.6,0,3.5,0,3.4,0L3.4,0z"/>
<path class="st0" d="M20.9,8.2c-2.2-0.1-4.3,1.1-5.4,3v0.1l0,0v-0.1V8.6H9.6c0.1,1.7,0,17.9,0,17.9h6v-10c0-0.5,0-1,0.2-1.4
	c0.5-1.3,1.7-2.2,3-2.2c2.1,0,3,1.6,3,4v9.6h5.9V16.2C27.7,10.8,24.8,8.2,20.9,8.2z"/>
</svg>
