<svg id="Layer_1" data-name="Layer 1" xmlns="http://www.w3.org/2000/svg" viewBox="0 0 27.72 26.49"><defs><style>.cls-1{fill:#353535;}</style></defs><title>353535</title><rect class="cls-1" x="0.35" y="8.62" width="5.94" height="17.87"/><path class="cls-1" d="M7.72,4.63a3.1,3.1,0,1,0-.08,6.18h0a3.1,3.1,0,1,0,0-6.18Z" transform="translate(-4.35 -4.63)"/><path class="cls-1" d="M25.23,12.82a5.89,5.89,0,0,0-5.35,3v.06h0l0-.06V13.24H13.93c.08,1.68,0,17.88,0,17.88h5.95v-10a4.22,4.22,0,0,1,.19-1.45,3.26,3.26,0,0,1,3.05-2.18c2.15,0,3,1.64,3,4v9.56h5.94V20.87C32.07,15.38,29.14,12.82,25.23,12.82Z" transform="translate(-4.35 -4.63)"/></svg>