<?xml version="1.0" encoding="utf-8"?>
<!-- Generator: Adobe Illustrator 21.0.0, SVG Export Plug-In . SVG Version: 6.00 Build 0)  -->
<svg version="1.1" id="Layer_1" xmlns="http://www.w3.org/2000/svg" xmlns:xlink="http://www.w3.org/1999/xlink" x="0px" y="0px"
	 viewBox="0 0 25.9 25.9" style="enable-background:new 0 0 25.9 25.9;" xml:space="preserve">
<style type="text/css">
	.st0{fill:#FFFFFF;}
</style>
<path class="st0" d="M12.9,6.2c-3.7,0-6.7,3-6.7,6.7s3,6.7,6.7,6.7s6.7-3,6.7-6.7l0,0C19.6,9.2,16.6,6.2,12.9,6.2z M12.9,17.1
	c-2.4,0-4.3-1.9-4.3-4.3s1.9-4.3,4.3-4.3s4.3,1.9,4.3,4.3l0,0C17.2,15.2,15.3,17.1,12.9,17.1z"/>
<circle class="st0" cx="19.9" cy="6.1" r="1.5"/>
<path class="st0" d="M23.8,2.1c-1.5-1.4-3.4-2.2-5.5-2.1H7.6C3.6-0.2,0.2,2.8,0,6.7C0,7,0,7.3,0,7.6v10.7c-0.1,2.1,0.7,4.1,2.2,5.6
	c1.5,1.4,3.4,2.1,5.4,2h10.6c2,0.1,4-0.6,5.5-2c1.4-1.5,2.2-3.5,2.1-5.5V7.6C25.9,5.5,25.2,3.6,23.8,2.1z M23.6,18.3
	c0.1,1.4-0.5,2.8-1.5,3.8c-1,0.9-2.4,1.4-3.8,1.4H7.6c-1.4,0.1-2.8-0.4-3.8-1.4c-1-1-1.5-2.4-1.4-3.9V7.6C2.3,6.2,2.8,4.8,3.8,3.8
	c1-0.9,2.4-1.4,3.8-1.4h10.8c1.4-0.1,2.8,0.4,3.8,1.4c0.9,1,1.4,2.4,1.4,3.8L23.6,18.3L23.6,18.3z"/>
</svg>
