<svg id="Layer_1" data-name="Layer 1" xmlns="http://www.w3.org/2000/svg" viewBox="0 0 25.86 25.86"><defs><style>.cls-1{fill:#353535;}</style></defs><title>inst</title><path class="cls-1" d="M13.56,6.75a6.67,6.67,0,1,0,6.67,6.67A6.68,6.68,0,0,0,13.56,6.75Zm0,10.94a4.27,4.27,0,1,1,4.27-4.27A4.28,4.28,0,0,1,13.56,17.69Z" transform="translate(-0.63 -0.54)"/><circle class="cls-1" cx="19.86" cy="6.05" r="1.51"/><path class="cls-1" d="M24.4,2.68A7.4,7.4,0,0,0,18.93.54H8.19A7.15,7.15,0,0,0,.63,8.1V18.79a7.51,7.51,0,0,0,2.19,5.58,7.64,7.64,0,0,0,5.42,2H18.88a7.69,7.69,0,0,0,5.47-2,7.47,7.47,0,0,0,2.14-5.53V8.1A7.46,7.46,0,0,0,24.4,2.68Zm-.21,16.16a5.1,5.1,0,0,1-1.51,3.81A5.41,5.41,0,0,1,18.88,24H8.24a5.41,5.41,0,0,1-3.8-1.35A5.24,5.24,0,0,1,3,18.79V8.1A5.19,5.19,0,0,1,4.44,4.3a5.27,5.27,0,0,1,3.8-1.36H19a5.2,5.2,0,0,1,3.81,1.41,5.4,5.4,0,0,1,1.4,3.75V18.84Z" transform="translate(-0.63 -0.54)"/></svg>