<svg id="Layer_1" data-name="Layer 1" xmlns="http://www.w3.org/2000/svg" viewBox="0 0 28.77 22.16"><defs><style>.cls-1{fill:#353535;stroke:#353535;stroke-miterlimit:10;stroke-width:0.75px;}</style></defs><title>mail</title><g id="Icon-Envelope"><path id="Fill-3" class="cls-1" d="M32.45,10.7,31.34,9.58,21,19.88a3.39,3.39,0,0,1-4.74,0L6,9.64,4.9,10.75l7.66,7.67L4.9,26.08,6,27.19l7.66-7.66,1.52,1.52a4.81,4.81,0,0,0,6.9,0l1.53-1.52,7.66,7.66,1.11-1.11-7.66-7.66,7.72-7.72" transform="translate(-4.35 -7.4)"/><path id="Fill-4" class="cls-1" d="M30.28,29.18H7.18a2.47,2.47,0,0,1-2.46-2.46V10.23A2.47,2.47,0,0,1,7.18,7.77h23.1a2.47,2.47,0,0,1,2.46,2.46V26.72a2.47,2.47,0,0,1-2.46,2.46ZM7.12,9.35a.8.8,0,0,0-.82.82V26.66a.8.8,0,0,0,.82.82H30.23a.8.8,0,0,0,.81-.82V10.17a.8.8,0,0,0-.81-.82Z" transform="translate(-4.35 -7.4)"/></g></svg>