<?xml version="1.0" encoding="utf-8"?>
<!-- Generator: Adobe Illustrator 21.0.0, SVG Export Plug-In . SVG Version: 6.00 Build 0)  -->
<svg version="1.1" id="Layer_1" xmlns="http://www.w3.org/2000/svg" xmlns:xlink="http://www.w3.org/1999/xlink" x="0px" y="0px"
	 viewBox="0 0 28.8 22.2" style="enable-background:new 0 0 28.8 22.2;" xml:space="preserve">
<style type="text/css">
	.st0{fill:#FFFFFF;}
</style>
<g id="Icon-Envelope">
	<path id="Fill-3" class="st0" d="M28.1,3.3L27,2.2L16.6,12.5c-1.3,1.3-3.4,1.3-4.7,0L1.7,2.2L0.6,3.3L8.2,11l-7.7,7.7l1.1,1.1
		l7.7-7.7l1.5,1.5c1.9,1.9,4.9,1.9,6.8,0.1c0,0,0.1-0.1,0.1-0.1l1.5-1.5l7.7,7.7l1.1-1.1L20.4,11L28.1,3.3"/>
	<path id="Fill-4" class="st0" d="M25.9,21.8H2.8c-1.4,0-2.5-1.1-2.5-2.5V2.8c0-1.4,1.1-2.5,2.5-2.5h23.1c1.4,0,2.5,1.1,2.5,2.5
		v16.5C28.4,20.7,27.3,21.8,25.9,21.8z M2.8,2C2.3,1.9,2,2.3,1.9,2.7c0,0,0,0,0,0v16.5c0,0.4,0.3,0.8,0.8,0.8c0,0,0,0,0,0h23.1
		c0.4,0,0.8-0.3,0.8-0.8c0,0,0,0,0,0V2.8c0-0.4-0.3-0.8-0.8-0.8c0,0,0,0,0,0H2.8z"/>
</g>
</svg>
