<svg id="Layer_1" data-name="Layer 1" xmlns="http://www.w3.org/2000/svg" viewBox="0 0 24.02 24.07"><defs><style>.cls-1{fill:#353535;}</style></defs><title>phone</title><path class="cls-1" d="M30,25v3.62a2.42,2.42,0,0,1-2.41,2.43h-.22A24,24,0,0,1,17,27.35,23.55,23.55,0,0,1,9.7,20.1,23.92,23.92,0,0,1,6,9.63,2.41,2.41,0,0,1,8.18,7H12a2.42,2.42,0,0,1,2.41,2.08,15.89,15.89,0,0,0,.85,3.39A2.43,2.43,0,0,1,14.74,15L13.2,16.55a19.26,19.26,0,0,0,7.25,7.25L22,22.26a2.43,2.43,0,0,1,2.55-.54,15.89,15.89,0,0,0,3.39.85A2.41,2.41,0,0,1,30,25Z" transform="translate(-5.98 -7)"/></svg>