<?xml version="1.0" encoding="utf-8"?>
<!-- Generator: Adobe Illustrator 21.0.0, SVG Export Plug-In . SVG Version: 6.00 Build 0)  -->
<svg version="1.1" id="Layer_1" xmlns="http://www.w3.org/2000/svg" xmlns:xlink="http://www.w3.org/1999/xlink" x="0px" y="0px"
	 viewBox="0 0 24 24.1" style="enable-background:new 0 0 24 24.1;" xml:space="preserve">
<style type="text/css">
	.st0{fill:#FFFFFF;}
</style>
<path class="st0" d="M24,18v3.6c0,1.3-1.1,2.4-2.4,2.4c0,0,0,0,0,0h-0.2c-3.7-0.4-7.2-1.7-10.4-3.7c-2.9-1.8-5.4-4.3-7.3-7.2
	C1.7,9.9,0.4,6.4,0,2.6C-0.1,1.3,0.9,0.1,2.2,0c0,0,0,0,0,0H6c1.2,0,2.2,0.9,2.4,2.1c0.2,1.2,0.4,2.3,0.9,3.4C9.6,6.3,9.4,7.3,8.8,8
	L7.2,9.5c1.7,3,4.2,5.5,7.3,7.2l1.5-1.5c0.7-0.7,1.7-0.9,2.5-0.5c1.1,0.4,2.2,0.7,3.4,0.9C23.2,15.7,24,16.8,24,18z"/>
</svg>
