<?xml version="1.0" encoding="utf-8"?>
<!-- Generator: Adobe Illustrator 21.0.0, SVG Export Plug-In . SVG Version: 6.00 Build 0)  -->
<svg version="1.1" id="Layer_1" xmlns="http://www.w3.org/2000/svg" xmlns:xlink="http://www.w3.org/1999/xlink" x="0px" y="0px"
	 viewBox="0 0 27 21.9" style="enable-background:new 0 0 27 21.9;" xml:space="preserve">
<style type="text/css">
	.st0{fill:#FFFFFF;}
</style>
<path class="st0" d="M27,2.6c-1,0.4-2.1,0.7-3.2,0.9c1.2-0.7,2-1.8,2.4-3.1C25.2,1,24,1.5,22.7,1.7c-2.1-2.2-5.6-2.3-7.8-0.2
	c-1.1,1.1-1.8,2.5-1.7,4.1c0,0.4,0,0.8,0.1,1.3C8.8,6.6,4.7,4.5,1.9,1C0.4,3.6,1.2,6.8,3.6,8.4c-0.9,0-1.7-0.3-2.5-0.7v0.1
	c0,2.6,1.9,4.9,4.4,5.4c-0.5,0.1-1,0.2-1.5,0.2c-0.3,0-0.7,0-1-0.1c0.7,2.3,2.8,3.8,5.2,3.8c-2,1.6-4.4,2.4-6.9,2.4
	c-0.4,0-0.9,0-1.3-0.1C2.5,21.1,5.5,22,8.5,22c8.6,0.1,15.7-6.9,15.8-15.5c0-0.1,0-0.2,0-0.3c0-0.2,0-0.5,0-0.7
	C25.3,4.7,26.3,3.7,27,2.6z"/>
</svg>
