<svg id="Layer_1" data-name="Layer 1" xmlns="http://www.w3.org/2000/svg" viewBox="0 0 27 21.94"><defs><style>.cls-1{fill:#353535;}</style></defs><title>tw</title><path class="cls-1" d="M31.59,10a10.93,10.93,0,0,1-3.18.87,5.59,5.59,0,0,0,2.44-3.06,11.26,11.26,0,0,1-3.52,1.34A5.54,5.54,0,0,0,17.75,13a5.24,5.24,0,0,0,.14,1.26A15.73,15.73,0,0,1,6.47,8.45a5.53,5.53,0,0,0,1.72,7.39,5.56,5.56,0,0,1-2.51-.69v.07a5.55,5.55,0,0,0,4.44,5.43,5.36,5.36,0,0,1-1.46.19,5.92,5.92,0,0,1-1-.09,5.53,5.53,0,0,0,5.17,3.84A11.07,11.07,0,0,1,5.91,27a11.69,11.69,0,0,1-1.32-.08,15.67,15.67,0,0,0,8.49,2.48A15.65,15.65,0,0,0,28.84,13.61c0-.24,0-.48,0-.71A11.24,11.24,0,0,0,31.59,10Z" transform="translate(-4.59 -7.43)"/></svg>