<?xml version="1.0" encoding="utf-8"?>
<!-- Generator: Adobe Illustrator 21.0.0, SVG Export Plug-In . SVG Version: 6.00 Build 0)  -->
<svg version="1.1" id="Layer_1" xmlns="http://www.w3.org/2000/svg" xmlns:xlink="http://www.w3.org/1999/xlink" x="0px" y="0px"
	 viewBox="0 0 33.3 23.9" style="enable-background:new 0 0 33.3 23.9;" xml:space="preserve">
<style type="text/css">
	.st0{fill:#FFFFFF;}
</style>
<path class="st0" d="M25.8,2.1c-3.6,0-6.3,2.4-7.4,6.1c-1.6-2.5-2.9-5.3-3.8-8.2h-3.8v10c0,2-1.6,3.6-3.6,3.6c-2,0-3.6-1.6-3.6-3.6
	V0H0v10c-0.2,4.1,3,7.5,7.1,7.7c4.1,0.2,7.5-3,7.7-7.1c0-0.2,0-0.4,0-0.5V8.3c0.8,1.6,1.7,3.1,2.7,4.5l-2.4,11h3.9l1.6-8.1
	c1.6,1,3.4,1.5,5.2,1.5c4.2-0.2,7.5-3.7,7.3-7.9C33,5.4,29.8,2.2,25.8,2.1L25.8,2.1z M25.8,13.5c-1.6-0.1-3.1-0.7-4.3-1.7l0.4-1.5
	v-0.1C22.2,8.7,23.1,6,25.9,6c2.1,0,3.8,1.7,3.8,3.8c0,0,0,0,0,0C29.6,11.8,27.9,13.5,25.8,13.5z"/>
</svg>
