<svg id="Layer_1" data-name="Layer 1" xmlns="http://www.w3.org/2000/svg" viewBox="0 0 28.4 28.4"><defs><style>.cls-1{fill:#ffd000;}</style></defs><title>4</title><circle class="cls-1" cx="14.79" cy="15.3" r="2.67" transform="translate(-2.51 1.6) rotate(-7.7)"/><path class="cls-1" d="M14.79.53A14.2,14.2,0,1,0,29,14.72,14.19,14.19,0,0,0,14.79.53Zm7.46,16.26-2,.13A5.69,5.69,0,0,1,19.79,18l1.33,1.52L19,21.63,17.5,20.29a5.44,5.44,0,0,1-1.09.45l-.13,2h-3l-.13-2a5.44,5.44,0,0,1-1.09-.45l-1.51,1.34L8.46,19.52,9.8,18a5.13,5.13,0,0,1-.45-1.08l-2-.13v-3l2-.13a5.44,5.44,0,0,1,.45-1.09L8.46,11.08,10.57,9l1.51,1.33a6.94,6.94,0,0,1,1.09-.45l.13-2h3l.13,2a6.94,6.94,0,0,1,1.09.45L19,9l2.11,2.11-1.33,1.51a6.94,6.94,0,0,1,.45,1.09l2,.13Z" transform="translate(-0.59 -0.53)"/></svg>