<svg id="Layer_1" data-name="Layer 1" xmlns="http://www.w3.org/2000/svg" viewBox="0 0 27.47 27.47"><defs><style>.cls-1{fill:#ffd000;}</style></defs><title>5</title><path class="cls-1" d="M14.72.77A13.74,13.74,0,1,0,28.45,14.51,13.74,13.74,0,0,0,14.72.77Zm-10,18.91c0-4.29,3.77-4.29,4.61-5.41l.09-.51a4.11,4.11,0,0,1-2-3.71c0-2.21,1.44-4,3.21-4a3.36,3.36,0,0,1,3,2.67,4.89,4.89,0,0,0-3.1,4.78,5.33,5.33,0,0,0,1.65,4l-.51.24a7,7,0,0,0-2.78,2Zm10.05,3.44H8.81c0-4.29,3.77-4.29,4.6-5.41l.1-.51a4.1,4.1,0,0,1-2-3.71c0-2.21,1.44-4,3.22-4s3.21,1.79,3.21,4a4.15,4.15,0,0,1-2,3.7l.1.58c.92,1.06,4.56,1.13,4.56,5.35Zm5.77-3.44h0a7.13,7.13,0,0,0-2.79-2l-.5-.24a5.34,5.34,0,0,0,1.64-4,4.88,4.88,0,0,0-3.09-4.78,3.35,3.35,0,0,1,3-2.67c1.78,0,3.22,1.8,3.22,4a4.11,4.11,0,0,1-2,3.69l.11.58c.92,1.07,4.56,1.14,4.56,5.36Z" transform="translate(-0.98 -0.77)"/></svg>