<svg id="Layer_1" data-name="Layer 1" xmlns="http://www.w3.org/2000/svg" viewBox="0 0 28.19 28.19"><defs><style>.cls-1{fill:#ffd000;}.cls-2{fill:#1081e0;}</style></defs><title>7</title><path class="cls-1" d="M14.8.85A14.1,14.1,0,1,0,28.89,14.94,14.09,14.09,0,0,0,14.8.85Z" transform="translate(-0.7 -0.85)"/><path class="cls-2" d="M17.31,14.36a.27.27,0,0,1-.24-.14,5,5,0,0,0-3.74-2.53.26.26,0,0,1-.24-.3.27.27,0,0,1,.3-.23A5.54,5.54,0,0,1,17.55,14a.27.27,0,0,1-.11.36A.22.22,0,0,1,17.31,14.36Z" transform="translate(-0.7 -0.85)"/><path d="M7.45,22.14l.94-2.82a5.33,5.33,0,1,1,2.12,2Z" transform="translate(-0.7 -0.85)"/><path d="M14.16,10.43a6.23,6.23,0,0,1,4.55,8.69l3.52.93-1.09-3.27a6.23,6.23,0,1,0-11.06-5.71A6.3,6.3,0,0,1,14.16,10.43Z" transform="translate(-0.7 -0.85)"/></svg>