<svg id="Layer_1" data-name="Layer 1" xmlns="http://www.w3.org/2000/svg" viewBox="0 0 28.2 28.2"><defs><style>.cls-1{fill:#ffd000;}.cls-2{fill:#161616;}</style></defs><title>6</title><path class="cls-1" d="M14.1,0A14.1,14.1,0,1,0,28.19,14.11v0A14.09,14.09,0,0,0,14.1,0Z" transform="translate(0.01 0)"/><path class="cls-2" d="M6.75,21.29l.94-2.82a5.33,5.33,0,1,1,2.12,2Z" transform="translate(0.01 0)"/><path class="cls-2" d="M13.46,9.58a6.24,6.24,0,0,1,5,7.26A6.09,6.09,0,0,1,18,18.27l3.52.93-1.09-3.27A6.23,6.23,0,0,0,9.64,9.71c-.09.17-.18.34-.26.51A6.28,6.28,0,0,1,13.46,9.58Z" transform="translate(0.01 0)"/></svg>