<svg id="Layer_1" data-name="Layer 1" xmlns="http://www.w3.org/2000/svg" viewBox="0 0 28.19 28.19"><defs><style>.cls-1{fill:#ffd000;}</style></defs><title>8</title><path class="cls-1" d="M14.8.85A14.1,14.1,0,1,0,28.89,14.94,14.09,14.09,0,0,0,14.8.85Zm0,5L23.14,11H6.46Zm8.44,13.5h0a1.51,1.51,0,0,1-1.51,1.51H7.86A1.51,1.51,0,0,1,6.35,19.3v-8a1.15,1.15,0,0,1,0-.26l8,5s0,0,0,0h0a.51.51,0,0,0,.17.07h0a.64.64,0,0,0,.2,0h0a.63.63,0,0,0,.19,0h0a.67.67,0,0,0,.18-.07h0l0,0,8-5a2.28,2.28,0,0,1,0,.26v8Z" transform="translate(-0.7 -0.85)"/></svg>